<svg width="66" height="55" viewBox="0 0 66 55" fill="none" xmlns="http://www.w3.org/2000/svg">
<circle cx="39" cy="3" r="3" fill="currentColor"/>
<circle cx="33" cy="3" r="3" fill="currentColor"/>
<circle cx="39" cy="9" r="3" fill="currentColor"/>
<circle cx="33" cy="9" r="3" fill="currentColor"/>
<circle cx="27" cy="9" r="3" fill="currentColor"/>
<circle cx="45" cy="9" r="3" fill="currentColor"/>
<circle cx="45" cy="15" r="3" fill="currentColor"/>
<circle cx="39" cy="15" r="3" fill="currentColor"/>
<circle cx="33" cy="15" r="3" fill="currentColor"/>
<circle cx="33" cy="21" r="3" fill="currentColor"/>
<circle cx="27" cy="21" r="3" fill="currentColor"/>
<circle cx="21" cy="21" r="3" fill="currentColor"/>
<circle cx="15" cy="21" r="3" fill="currentColor"/>
<circle cx="27" cy="15" r="3" fill="currentColor"/>
<circle cx="21" cy="15" r="3" fill="currentColor"/>
<circle cx="15" cy="16" r="3" fill="currentColor"/>
<circle cx="9" cy="16" r="3" fill="currentColor"/>
<circle cx="9" cy="22" r="3" fill="currentColor"/>
<circle cx="3" cy="16" r="3" fill="currentColor"/>
<circle cx="15" cy="10" r="3" fill="currentColor"/>
<circle cx="9" cy="10" r="3" fill="currentColor"/>
<circle cx="39" cy="21" r="3" fill="currentColor"/>
<circle cx="39" cy="34" r="3" fill="currentColor"/>
<circle cx="27" cy="34" r="3" fill="currentColor"/>
<circle cx="21" cy="34" r="3" fill="currentColor"/>
<circle cx="21" cy="40" r="3" fill="currentColor"/>
<circle cx="27" cy="40" r="3" fill="currentColor"/>
<circle cx="27" cy="46" r="3" fill="currentColor"/>
<circle cx="27" cy="52" r="3" fill="currentColor"/>
<circle cx="21" cy="46" r="3" fill="currentColor"/>
<circle cx="21" cy="52" r="3" fill="currentColor"/>
<circle cx="15" cy="46" r="3" fill="currentColor"/>
<circle cx="15" cy="40" r="3" fill="currentColor"/>
<circle cx="39" cy="40" r="3" fill="currentColor"/>
<circle cx="33" cy="40" r="3" fill="currentColor"/>
<circle cx="45" cy="34" r="3" fill="currentColor"/>
<circle cx="51" cy="34" r="3" fill="currentColor"/>
<circle cx="57" cy="34" r="3" fill="currentColor"/>
<circle cx="63" cy="34" r="3" fill="currentColor"/>
<circle cx="63" cy="40" r="3" fill="currentColor"/>
<circle cx="57" cy="40" r="3" fill="currentColor"/>
<circle cx="51" cy="40" r="3" fill="currentColor"/>
<circle cx="45" cy="40" r="3" fill="currentColor"/>
<circle cx="63" cy="46" r="3" fill="currentColor"/>
<circle cx="57" cy="46" r="3" fill="currentColor"/>
<circle cx="57" cy="52" r="3" fill="currentColor"/>
<circle cx="51" cy="46" r="3" fill="currentColor"/>
<circle cx="45" cy="46" r="3" fill="currentColor"/>
<circle cx="39" cy="46" r="3" fill="currentColor"/>
<circle cx="33" cy="46" r="3" fill="currentColor"/>
<circle cx="39" cy="52" r="3" fill="currentColor"/>
<circle cx="33" cy="52" r="3" fill="currentColor"/>
<circle cx="51" cy="52" r="3" fill="currentColor"/>
<circle cx="45" cy="52" r="3" fill="currentColor"/>
<circle cx="57" cy="28" r="3" fill="currentColor"/>
<circle cx="51" cy="28" r="3" fill="currentColor"/>
</svg>