<svg width="54" height="54" viewBox="0 0 54 54" fill="none" xmlns="http://www.w3.org/2000/svg">
<circle cx="27" cy="39" r="3" fill="white"/>
<circle cx="27" cy="51" r="3" fill="white"/>
<circle cx="27" cy="33" r="3" fill="white"/>
<circle cx="21" cy="33" r="3" fill="white"/>
<circle cx="15" cy="33" r="3" fill="white"/>
<circle cx="21" cy="39" r="3" fill="white"/>
<circle cx="9" cy="46" r="3" fill="white"/>
<circle cx="21" cy="27" r="3" fill="white"/>
<circle cx="15" cy="27" r="3" fill="white"/>
<circle cx="3" cy="27" r="3" fill="white"/>
<circle cx="21" cy="21" r="3" fill="white"/>
<circle cx="15" cy="21" r="3" fill="white"/>
<circle cx="21" cy="15" r="3" fill="white"/>
<circle cx="9" cy="9" r="3" fill="white"/>
<circle cx="27" cy="27" r="3" fill="white"/>
<circle cx="27" cy="21" r="3" fill="white"/>
<circle cx="27" cy="15" r="3" fill="white"/>
<circle cx="27" cy="3" r="3" fill="white"/>
<circle cx="33" cy="15" r="3" fill="white"/>
<circle cx="45" cy="9" r="3" fill="white"/>
<circle cx="33" cy="21" r="3" fill="white"/>
<circle cx="33" cy="27" r="3" fill="white"/>
<circle cx="39" cy="27" r="3" fill="white"/>
<circle cx="51" cy="27" r="3" fill="white"/>
<circle cx="39" cy="33" r="3" fill="white"/>
<circle cx="45" cy="46" r="3" fill="white"/>
<circle cx="33" cy="33" r="3" fill="white"/>
<circle cx="33" cy="39" r="3" fill="white"/>
<circle cx="39" cy="21" r="3" fill="white"/>
</svg>
